<svg width="32" height="33" viewBox="0 0 32 33" fill="none" xmlns="http://www.w3.org/2000/svg">
<g clip-path="url(#clip0_8192_212049)">
<path d="M31.999 15.9797C31.999 15.8279 31.9961 15.6761 31.9913 15.5253C31.9913 15.5108 31.9913 15.4973 31.9894 15.4828C31.8734 11.8181 30.5248 8.46373 28.344 5.82179L26.1874 7.55602C26.6746 8.14376 27.1125 8.77403 27.4933 9.44104L27.4711 9.45361C28.5886 11.3957 29.2305 13.6432 29.2305 16.0444V16.0512C29.2208 18.4234 28.5847 20.6458 27.4827 22.5686L27.5049 22.5811C25.2284 26.5793 20.9286 29.2763 15.9985 29.2763C11.0685 29.2763 6.78513 26.589 4.50569 22.6034L4.52889 22.5898C3.41141 20.6478 2.76954 18.4002 2.76954 15.999V15.9932C2.76954 15.8627 2.77147 15.7322 2.7763 15.6017C2.7763 15.5998 2.7763 15.5969 2.7763 15.5949C2.85074 13.3725 3.47715 11.2903 4.51729 9.47584L4.49603 9.46327C4.89817 8.75663 5.36314 8.09059 5.88515 7.47288L3.75458 5.70386C1.41135 8.48693 0 12.0791 0 16C0 16.0251 0.00096668 16.0502 0.00096668 16.0754C0.00096668 16.2271 0.00386672 16.3779 0.00870012 16.5287C0.00870012 16.5403 0.00870012 16.5519 0.0096668 16.5635C0.283237 25.1593 7.33807 32.0449 15.9995 32.0449C24.661 32.0449 31.999 24.8808 31.999 16.0454C31.999 16.0232 31.9981 16.0009 31.9981 15.9797H31.999Z" fill="#147C83"/>
<path d="M15.9991 26.7359C19.9142 26.7359 23.3314 24.6064 25.1594 21.4443L22.7891 20.0755C21.661 22.0263 19.716 23.4405 17.425 23.863V2.88506H17.4182V2.87249C17.4463 2.87636 17.4733 2.87926 17.5014 2.88313C17.6802 2.90246 17.8561 2.92759 18.033 2.95369C18.0756 2.96046 18.1162 2.96626 18.1587 2.97303C18.3482 3.00493 18.5347 3.0407 18.7213 3.07936C18.7851 3.09386 18.8508 3.1074 18.9146 3.1219C19.0867 3.16056 19.2588 3.20213 19.4289 3.24757C19.4995 3.2669 19.5691 3.28623 19.6397 3.3075C19.7624 3.34327 19.8823 3.37807 20.0031 3.4177C20.0834 3.44283 20.1646 3.46894 20.2438 3.496C20.3308 3.52597 20.4159 3.55787 20.5019 3.5888L20.5126 3.55787C20.5213 3.56077 20.529 3.56367 20.5377 3.56657L21.4783 0.963301C19.7692 0.34076 17.9228 0.000488281 15.9982 0.000488281C14.0735 0.000488281 12.2658 0.333993 10.5712 0.944934L10.5809 0.972001C10.5722 0.974901 10.5635 0.977801 10.5548 0.981668L11.4973 3.5917C11.5785 3.5627 11.6597 3.53177 11.7419 3.50374C11.8231 3.4757 11.9052 3.45057 11.9864 3.4235C12.1102 3.38483 12.2349 3.34713 12.3606 3.3104C12.4389 3.2872 12.5162 3.26593 12.5964 3.24467C12.7559 3.20213 12.9154 3.16346 13.0769 3.1277C13.1407 3.1132 13.2064 3.09966 13.2702 3.08516C13.4568 3.0465 13.6443 3.01073 13.8328 2.97883C13.8773 2.97206 13.9217 2.96433 13.9672 2.95949C14.1431 2.93339 14.3181 2.90826 14.4959 2.88893C14.524 2.88506 14.551 2.88216 14.5791 2.88023V2.89279H14.5742V23.8639C12.2813 23.4425 10.3383 22.0253 9.21014 20.0765L6.83984 21.4453C8.66977 24.6073 12.085 26.7369 16.0001 26.7369L15.9991 26.7359Z" fill="#147C83"/>
</g>
<defs>
<clipPath id="clip0_8192_212049">
<rect width="32" height="32.0445" fill="white" transform="translate(0 0.000244141)"/>
</clipPath>
</defs>
</svg>
